<svg xmlns="http://www.w3.org/2000/svg" viewBox="0 0 87.23 87.23"><defs><style>.cls-1{fill:#fff;}</style></defs><title>Ресурс 7</title><g id="Слой_2" data-name="Слой 2"><g id="Слой_1-2" data-name="Слой 1"><path class="cls-1" d="M62.4,87.23H24.83A24.86,24.86,0,0,1,0,62.41V24.83A24.86,24.86,0,0,1,24.83,0H62.4A24.86,24.86,0,0,1,87.23,24.83V62.41A24.86,24.86,0,0,1,62.4,87.23ZM24.83,7.48A17.37,17.37,0,0,0,7.48,24.83V62.41A17.37,17.37,0,0,0,24.83,79.76H62.4A17.37,17.37,0,0,0,79.75,62.41V24.83A17.37,17.37,0,0,0,62.4,7.48Z"/><path class="cls-1" d="M43.62,66A22.34,22.34,0,1,1,66,43.62,22.36,22.36,0,0,1,43.62,66Zm0-37.19A14.86,14.86,0,1,0,58.47,43.62,14.87,14.87,0,0,0,43.62,28.76Z"/><circle class="cls-1" cx="66.91" cy="20" r="5.37"/></g></g></svg>