<?xml version="1.0" encoding="utf-8"?>
<!-- Generator: Adobe Illustrator 21.1.0, SVG Export Plug-In . SVG Version: 6.00 Build 0)  -->
<svg version="1.1" id="Слой_1" xmlns="http://www.w3.org/2000/svg" xmlns:xlink="http://www.w3.org/1999/xlink" x="0px" y="0px"
	 viewBox="0 0 618 494.4" style="enable-background:new 0 0 618 494.4;" xml:space="preserve">
<style type="text/css">
	.st0{fill:#FFFFFF;}
</style>
<g>
	<path class="st0" d="M309,185.4c-51.2,0-92.7,41.5-92.7,92.7c0,51.2,41.5,92.7,92.7,92.7c51.2,0,92.7-41.5,92.7-92.7
		C401.7,226.9,360.2,185.4,309,185.4L309,185.4z M556.2,92.7H482c-10.2,0-21.2-7.9-24.4-17.6l-19.2-57.5C435.2,7.9,424.3,0,414.1,0
		H203.9c-10.2,0-21.2,7.9-24.4,17.6l-19.2,57.5c-3.2,9.7-14.2,17.6-24.4,17.6H0v401.7h618V123.6C618,89.6,621.7,92.7,556.2,92.7
		L556.2,92.7z M309,432.6c-85.3,0-154.5-69.2-154.5-154.5c0-85.3,69.2-154.5,154.5-154.5c85.3,0,154.5,69.2,154.5,154.5
		C463.5,363.4,394.3,432.6,309,432.6L309,432.6z M534.6,197.7c-12.4,0-22.4-10.4-21.6-23c0.7-10.8,9.4-19.5,20.2-20.2
		c12.6-0.8,23,9.2,23,21.6C556.2,188,546.5,197.7,534.6,197.7L534.6,197.7z M534.6,197.7"/>
</g>
</svg>
