<svg xmlns="http://www.w3.org/2000/svg" viewBox="0 0 66.36 53.07"><defs><style>.cls-1{fill:#fff;fill-rule:evenodd;}</style></defs><title>Ресурс 4</title><g id="Слой_2" data-name="Слой 2"><g id="Слой_1-2" data-name="Слой 1"><path class="cls-1" d="M66.36,6.26a27.61,27.61,0,0,1-7.8,2.13,13.53,13.53,0,0,0,6-7.43A27.69,27.69,0,0,1,55.9,4.22,13.73,13.73,0,0,0,46,0,13.51,13.51,0,0,0,32.34,13.41a13.28,13.28,0,0,0,.34,3,38.8,38.8,0,0,1-28.06-14A13.27,13.27,0,0,0,8.84,20.33a13.41,13.41,0,0,1-6.18-1.67v.17A13.32,13.32,0,0,0,3.6,23.7a13.61,13.61,0,0,0,10,8.28,13.84,13.84,0,0,1-3.6.48,12.51,12.51,0,0,1-2.55-.26,13.57,13.57,0,0,0,12.7,9.3A27.51,27.51,0,0,1,3.26,47.26,31,31,0,0,1,0,47.06a39.14,39.14,0,0,0,20.89,6c21.26,0,34.36-14.74,37.79-30a36.37,36.37,0,0,0,.93-8.11c0-.57,0-1.16,0-1.73a26.75,26.75,0,0,0,6.78-6.95Z"/></g></g></svg>