<svg xmlns="http://www.w3.org/2000/svg" xmlns:xlink="http://www.w3.org/1999/xlink" viewBox="0 0 76.34 43.56"><defs><style>.cls-1{fill:none;}.cls-2{clip-path:url(#clip-path);}.cls-3{fill:#fff;}</style><clipPath id="clip-path"><rect class="cls-1" width="76.84" height="43.91"/></clipPath></defs><title>Ресурс 5</title><g id="Слой_2" data-name="Слой 2"><g id="Слой_1-2" data-name="Слой 1"><g class="cls-2"><path class="cls-3" d="M75.94,39.34a5.24,5.24,0,0,0-.26-.5q-2-3.58-7.59-8.78L68,30l0,0,0,0h0q-2.54-2.43-3.22-3.26a3.06,3.06,0,0,1-.56-3.22,30,30,0,0,1,3.58-5.21q1.63-2.1,2.58-3.38,6.88-9.14,6-11.69L76,2.75a2.32,2.32,0,0,0-1.23-.65A6.21,6.21,0,0,0,72.22,2l-11.45.08a1.48,1.48,0,0,0-.79,0l-.52.12-.2.1-.16.12a1.73,1.73,0,0,0-.44.42,2.73,2.73,0,0,0-.4.7A65,65,0,0,1,54,12.49q-1.47,2.47-2.7,4.27a20.75,20.75,0,0,1-2.07,2.66,14.29,14.29,0,0,1-1.51,1.37c-.45.35-.8.49-1,.44L46,21.07a2.61,2.61,0,0,1-.89-1,4.33,4.33,0,0,1-.46-1.55q-.12-.93-.14-1.61c0-.45,0-1.09,0-1.91s0-1.38,0-1.67q0-1.51.06-3.28t.1-2.8q0-1,0-2.19a9.16,9.16,0,0,0-.14-1.81A6.13,6.13,0,0,0,44.24,2a2.13,2.13,0,0,0-.81-1A4.57,4.57,0,0,0,42.09.52,26.65,26.65,0,0,0,36.73,0q-7.39-.08-9.5,1a5.33,5.33,0,0,0-1.51,1.19q-.71.88-.2,1A4.88,4.88,0,0,1,28.9,4.82l.24.48a7.48,7.48,0,0,1,.56,1.83A18.35,18.35,0,0,1,30,10a30.65,30.65,0,0,1,0,5q-.2,2.06-.38,3.22a6.44,6.44,0,0,1-.54,1.87,7.55,7.55,0,0,1-.48.87.68.68,0,0,1-.2.2,3,3,0,0,1-1.07.2A2.52,2.52,0,0,1,26,20.79a9.53,9.53,0,0,1-1.65-1.53,20.43,20.43,0,0,1-1.93-2.72q-1.07-1.75-2.22-4.13l-.64-1.15Q19,10.14,18,8T16.14,3.9a2.64,2.64,0,0,0-1-1.27L15,2.51a2.86,2.86,0,0,0-.64-.34,4.24,4.24,0,0,0-.91-.26L2.54,2a2.77,2.77,0,0,0-2.27.75L.12,3A1.3,1.3,0,0,0,0,3.62,3.15,3.15,0,0,0,.24,4.7q2.39,5.6,5.19,10.81t4.87,8.39q2.07,3.18,4.21,6t2.84,3.62c.46.53.83.93,1.09,1.19l1,1a23.34,23.34,0,0,0,2.8,2.28,47.76,47.76,0,0,0,4.09,2.63,22.25,22.25,0,0,0,5.23,2.11,18,18,0,0,0,5.8.65h4.57A3.16,3.16,0,0,0,44,42.45l.16-.2a2.63,2.63,0,0,0,.3-.74,4,4,0,0,0,.14-1.09,13.19,13.19,0,0,1,.26-3.08,8.07,8.07,0,0,1,.68-2.07,5,5,0,0,1,.85-1.17,3.38,3.38,0,0,1,.68-.58l.32-.14a2.53,2.53,0,0,1,2.25.62,13.31,13.31,0,0,1,2.43,2.31q1.13,1.37,2.72,3.08a19,19,0,0,0,2.78,2.54l.8.48a9.61,9.61,0,0,0,2.07.87,4.42,4.42,0,0,0,2.22.2l10.18-.16a4.6,4.6,0,0,0,2.34-.5,2,2,0,0,0,1-1.09,3.08,3.08,0,0,0,0-1.35,5.16,5.16,0,0,0-.28-1.05Zm0,0"/></g></g></g></svg>