<svg xmlns="http://www.w3.org/2000/svg" viewBox="0 0 66.36 48.65"><defs><style>.cls-1{fill:#fff;fill-rule:evenodd;}</style></defs><title>Ресурс 3</title><g id="Слой_2" data-name="Слой 2"><g id="Слой_1-2" data-name="Слой 1"><path class="cls-1" d="M44.25,23.62l-17.92,9.7V13.86l8.08,4.39ZM65.71,10.49s-.65-4.76-2.64-6.86A9.4,9.4,0,0,0,56.41.68C47.11,0,33.19,0,33.19,0h0S19.25,0,9.95.68A9.44,9.44,0,0,0,3.29,3.63C1.3,5.73.68,10.49.68,10.49A106.71,106.71,0,0,0,0,21.69v5.25a106,106,0,0,0,.68,11.2S1.3,42.92,3.29,45c2.55,2.75,5.87,2.66,7.34,2.95,5.3.51,22.56.68,22.56.68s13.92,0,23.22-.71A9.26,9.26,0,0,0,63.07,45c2-2.1,2.64-6.86,2.64-6.86a110.65,110.65,0,0,0,.65-11.2V21.69a110.61,110.61,0,0,0-.65-11.2Z"/></g></g></svg>