<svg xmlns="http://www.w3.org/2000/svg" xmlns:xlink="http://www.w3.org/1999/xlink" viewBox="0 0 46.29 76.96"><defs><style>.cls-1{fill:none;}.cls-2{clip-path:url(#clip-path);}.cls-3{fill:#fff;}</style><clipPath id="clip-path"><rect class="cls-1" width="46.29" height="76.96"/></clipPath></defs><title>Ресурс 6</title><g id="Слой_2" data-name="Слой 2"><g id="Слой_1-2" data-name="Слой 1"><g class="cls-2"><path class="cls-3" d="M45.6,41.33c-1.1-2.21-4.15-4-8.19-.86-5.47,4.31-14.26,4.31-14.26,4.31s-8.79,0-14.26-4.31c-4-3.19-7.09-1.35-8.19.86C-1.22,45.18.94,47,5.83,50.18c4.18,2.68,9.91,3.68,13.62,4.06l-3.09,3.09L4.88,68.81a4.47,4.47,0,0,0,0,6.32l.53.53a4.47,4.47,0,0,0,6.32,0L23.2,64.17,34.68,75.65a4.47,4.47,0,0,0,6.32,0l.53-.53a4.47,4.47,0,0,0,0-6.32L30,57.33l-3.1-3.1c3.71-.38,9.38-1.39,13.52-4,4.89-3.14,7.05-5,5.14-8.85ZM23.15,9.9a9.58,9.58,0,1,1-9.58,9.58A9.58,9.58,0,0,1,23.15,9.9Zm0,29.06A19.48,19.48,0,1,0,3.67,19.48,19.48,19.48,0,0,0,23.15,39Z"/></g></g></g></svg>