<?xml version="1.0" encoding="utf-8"?>
<!-- Generator: Adobe Illustrator 21.1.0, SVG Export Plug-In . SVG Version: 6.00 Build 0)  -->
<svg version="1.1" id="Слой_1" xmlns="http://www.w3.org/2000/svg" xmlns:xlink="http://www.w3.org/1999/xlink" x="0px" y="0px"
	 viewBox="0 0 435.8 348.3" style="enable-background:new 0 0 435.8 348.3;" xml:space="preserve">
<style type="text/css">
	.st0{fill:#FFFFFF;}
</style>
<g>
	<path class="st0" d="M284.8,174.2l-123.2,74.6V99.5L284.8,174.2z M435.8,0v348.3H0V0H435.8z M272.4,49.8h54.5V24.9h-54.5V49.8z
		 M190.7,49.8h54.5V24.9h-54.5V49.8z M109,49.8h54.5V24.9H109V49.8z M27.2,49.8h54.5V24.9H27.2V49.8z M81.7,298.6H27.2v24.9h54.5
		V298.6z M163.4,298.6H109v24.9h54.5V298.6z M245.1,298.6h-54.5v24.9h54.5V298.6z M326.9,298.6h-54.5v24.9h54.5V298.6z M408.6,298.6
		h-54.5v24.9h54.5V298.6z M408.6,74.6H27.2v199.1h381.3V74.6z M408.6,24.9h-54.5v24.9h54.5V24.9z M408.6,24.9"/>
</g>
</svg>
